<?xml version="1.0" encoding="UTF-8" standalone="no"?>
<svg
   viewBox="0 0 512 512"
   version="1.1"
   id="svg8"
   width="512"
   height="512"
   xmlns:xlink="http://www.w3.org/1999/xlink"
   xmlns="http://www.w3.org/2000/svg"
   xmlns:svg="http://www.w3.org/2000/svg">
  <defs
     id="defs8">
    <linearGradient
       id="swatch1">
      <stop
         style="stop-color:#ffffff;stop-opacity:1;"
         offset="0"
         id="stop1" />
    </linearGradient>
    <linearGradient
       xlink:href="#swatch1"
       id="linearGradient1"
       x1="190.31815"
       y1="390.66672"
       x2="529.52264"
       y2="390.66672"
       gradientUnits="userSpaceOnUse" />
    <linearGradient
       xlink:href="#swatch1"
       id="linearGradient2"
       gradientUnits="userSpaceOnUse"
       x1="190.31815"
       y1="390.66672"
       x2="529.52264"
       y2="390.66672" />
    <linearGradient
       xlink:href="#swatch1"
       id="linearGradient3"
       gradientUnits="userSpaceOnUse"
       x1="190.31815"
       y1="390.66672"
       x2="529.52264"
       y2="390.66672" />
    <linearGradient
       xlink:href="#swatch1"
       id="linearGradient4"
       gradientUnits="userSpaceOnUse"
       x1="190.31815"
       y1="390.66672"
       x2="529.52264"
       y2="390.66672" />
    <linearGradient
       xlink:href="#swatch1"
       id="linearGradient5"
       gradientUnits="userSpaceOnUse"
       x1="190.31815"
       y1="390.66672"
       x2="529.52264"
       y2="390.66672" />
    <linearGradient
       xlink:href="#swatch1"
       id="linearGradient6"
       gradientUnits="userSpaceOnUse"
       x1="190.31815"
       y1="390.66672"
       x2="529.52264"
       y2="390.66672" />
    <linearGradient
       xlink:href="#swatch1"
       id="linearGradient7"
       gradientUnits="userSpaceOnUse"
       x1="190.31815"
       y1="390.66672"
       x2="529.52264"
       y2="390.66672" />
    <linearGradient
       xlink:href="#swatch1"
       id="linearGradient8"
       gradientUnits="userSpaceOnUse"
       x1="190.31815"
       y1="390.66672"
       x2="529.52264"
       y2="390.66672" />
    <linearGradient
       xlink:href="#swatch1"
       id="linearGradient9"
       gradientUnits="userSpaceOnUse"
       x1="190.31815"
       y1="390.66672"
       x2="529.52264"
       y2="390.66672" />
    <linearGradient
       xlink:href="#swatch1"
       id="linearGradient10"
       gradientUnits="userSpaceOnUse"
       x1="190.31815"
       y1="390.66672"
       x2="529.52264"
       y2="390.66672" />
    <linearGradient
       xlink:href="#swatch1"
       id="linearGradient11"
       gradientUnits="userSpaceOnUse"
       x1="190.31815"
       y1="390.66672"
       x2="529.52264"
       y2="390.66672" />
  </defs>
  <g
     transform="matrix(1.5094141,0,0,1.5094141,-287.2689,-333.67766)"
     stroke="#000"
     id="g8"
     style="fill:url(#linearGradient1);stroke:#ffffff;stroke-opacity:1">
    <path
       d="M 190.74,444.15 H 313.6 c -11.078,11.007 -22.993,22.218 -38.404,26.791 -18.96,5.6259 -40.148,4.7179 -57.74,-4.7326 -10.226,-5.4934 -20.478,-12.011 -26.713,-22.059 z"
       id="path1"
       style="fill:url(#linearGradient2);stroke:#ffffff;stroke-opacity:1" />
    <g
       transform="translate(-1.229)"
       stroke-width="6"
       id="g3"
       style="fill:url(#linearGradient5);stroke:#ffffff;stroke-opacity:1">
      <path
         d="m 199.29,445.22 57.143,-155"
         id="path2"
         style="fill:url(#linearGradient3);stroke:#ffffff;stroke-opacity:1" />
      <path
         d="m 307.5,446.47 -57.143,-155"
         id="path3"
         style="fill:url(#linearGradient4);stroke:#ffffff;stroke-opacity:1" />
    </g>
    <path
       d="m 405.45,444.15 h 122.86 c -11.078,11.007 -22.993,22.218 -38.404,26.791 -18.96,5.6259 -40.148,4.7179 -57.74,-4.7326 -10.226,-5.4934 -20.478,-12.011 -26.713,-22.059 z"
       id="path4"
       style="fill:url(#linearGradient6);stroke:#ffffff;stroke-opacity:1" />
    <g
       transform="translate(213.49)"
       stroke-width="6"
       id="g6"
       style="fill:url(#linearGradient9);stroke:#ffffff;stroke-opacity:1">
      <path
         d="m 199.29,445.22 57.143,-155"
         id="path5"
         style="fill:url(#linearGradient7);stroke:#ffffff;stroke-opacity:1" />
      <path
         d="m 307.5,446.47 -57.143,-155"
         id="path6"
         style="fill:url(#linearGradient8);stroke:#ffffff;stroke-opacity:1" />
    </g>
    <path
       d="m 271.13,548.79 h 176.79 c 0,0 -60.527,-10.812 -77.5,-33.214 -5.5108,-7.2738 0.7383,-18.099 0.42857,-27.143 l -6.5,-189.79 h -8.9286 l -6.5,189.79 c -0.30969,9.0424 5.645,19.897 0.0714,27.143 -17.202,22.365 -77.857,33.214 -77.857,33.214 h 2e-5 z"
       id="path7"
       style="fill:url(#linearGradient10);stroke:#ffffff;stroke-opacity:1" />
    <path
       d="M 480,300.58 H 239.04 l -1.4286,-13.929 c -0.0836,-0.81459 0.11215,-1.8827 0.80357,-2.3214 0.70767,-0.44902 1.6632,0.31365 2.5,0.26785 29.973,-1.0006 57.968,-20.911 88.304,-15.804 7.235,1.2182 13.471,3.8649 18.75,8.9286 0.65231,0.6571 1.9643,1.9643 1.9643,1.9643 2.7398,2.7398 3.8119,-1.1161 5,-4.6429 2.3236,-7.6497 4.0861,-42.5 4.5861,-42.5 0.5,0 2.2625,34.85 4.5861,42.5 1.1881,3.5267 2.2602,7.3826 5,4.6429 l 1.9643,-1.9643 c 4.9372,-5.5055 11.668,-7.998 18.75,-8.9286 29.935,-3.9332 58.808,11.721 88.304,15.804 0.83685,0.0458 1.7923,-0.71687 2.5,-0.26785 0.69142,0.43871 0.88717,1.5068 0.80357,2.3214 l -1.4286,13.929 z"
       id="path8"
       style="fill:url(#linearGradient11);stroke:#ffffff;stroke-opacity:1" />
  </g>
</svg>
